<mxfile host="app.diagrams.net" agent="Mozilla/5.0 (Macintosh; Intel Mac OS X 10_15_7) AppleWebKit/537.36 (KHTML, like Gecko) Chrome/129.0.0.0 Safari/537.36 Edg/129.0.0.0" version="24.7.16">
  <diagram id="Ht1M8jgEwFfnCIfOTk4-" name="Page-1">
    <mxGraphModel dx="1426" dy="798" grid="1" gridSize="10" guides="1" tooltips="1" connect="1" arrows="1" fold="1" page="1" pageScale="1" pageWidth="1169" pageHeight="827" math="0" shadow="0">
      <root>
        <mxCell id="0" />
        <mxCell id="1" parent="0" />
        <mxCell id="tLU6vOamgJZOyBqF00xu-16" style="edgeStyle=orthogonalEdgeStyle;rounded=0;orthogonalLoop=1;jettySize=auto;html=1;exitX=1;exitY=0.5;exitDx=0;exitDy=0;entryX=0;entryY=0.5;entryDx=0;entryDy=0;" edge="1" parent="1" source="tLU6vOamgJZOyBqF00xu-10" target="tLU6vOamgJZOyBqF00xu-14">
          <mxGeometry relative="1" as="geometry" />
        </mxCell>
        <mxCell id="tLU6vOamgJZOyBqF00xu-10" value="&lt;p style=&quot;margin:0px;margin-top:6px;text-align:center;&quot;&gt;&lt;b&gt;UW&lt;/b&gt;&lt;/p&gt;&lt;hr size=&quot;1&quot; style=&quot;border-style:solid;&quot;&gt;&lt;p style=&quot;margin: 0pt 0pt 0.0001pt; text-align: justify; font-family: 等线; font-size: 10.5pt;&quot; class=&quot;MsoNormal&quot;&gt;&lt;span style=&quot;font-family: 微软雅黑; font-size: 10.5pt;&quot;&gt;功能：用户网页客户端&lt;/span&gt;&lt;span style=&quot;font-family: 微软雅黑; font-size: 10.5pt;&quot;&gt;，&lt;/span&gt;&lt;span style=&quot;font-family: 微软雅黑; font-size: 10.5pt;&quot;&gt;&lt;font face=&quot;微软雅黑&quot;&gt;负责&lt;/font&gt;&lt;font face=&quot;微软雅黑&quot;&gt;UI展现、用户交互&lt;/font&gt;&lt;/span&gt;&lt;/p&gt;" style="align=left;overflow=fill;html=1;dropTarget=0;whiteSpace=wrap;" vertex="1" parent="1">
          <mxGeometry x="180" y="75" width="180" height="90" as="geometry" />
        </mxCell>
        <mxCell id="tLU6vOamgJZOyBqF00xu-11" value="" style="shape=component;jettyWidth=8;jettyHeight=4;" vertex="1" parent="tLU6vOamgJZOyBqF00xu-10">
          <mxGeometry x="1" width="20" height="20" relative="1" as="geometry">
            <mxPoint x="-24" y="4" as="offset" />
          </mxGeometry>
        </mxCell>
        <mxCell id="tLU6vOamgJZOyBqF00xu-13" style="edgeStyle=orthogonalEdgeStyle;rounded=0;orthogonalLoop=1;jettySize=auto;html=1;entryX=0;entryY=0.5;entryDx=0;entryDy=0;" edge="1" parent="1" source="tLU6vOamgJZOyBqF00xu-12" target="tLU6vOamgJZOyBqF00xu-10">
          <mxGeometry relative="1" as="geometry" />
        </mxCell>
        <mxCell id="tLU6vOamgJZOyBqF00xu-12" value="Actor" style="shape=umlActor;verticalLabelPosition=bottom;verticalAlign=top;html=1;" vertex="1" parent="1">
          <mxGeometry x="40" y="90" width="30" height="60" as="geometry" />
        </mxCell>
        <mxCell id="tLU6vOamgJZOyBqF00xu-19" style="edgeStyle=orthogonalEdgeStyle;rounded=0;orthogonalLoop=1;jettySize=auto;html=1;entryX=0;entryY=0.5;entryDx=0;entryDy=0;" edge="1" parent="1" source="tLU6vOamgJZOyBqF00xu-14" target="tLU6vOamgJZOyBqF00xu-17">
          <mxGeometry relative="1" as="geometry" />
        </mxCell>
        <mxCell id="tLU6vOamgJZOyBqF00xu-30" style="edgeStyle=orthogonalEdgeStyle;rounded=0;orthogonalLoop=1;jettySize=auto;html=1;entryX=0.5;entryY=0;entryDx=0;entryDy=0;" edge="1" parent="1" source="tLU6vOamgJZOyBqF00xu-14" target="tLU6vOamgJZOyBqF00xu-28">
          <mxGeometry relative="1" as="geometry" />
        </mxCell>
        <mxCell id="tLU6vOamgJZOyBqF00xu-14" value="&lt;p style=&quot;margin:0px;margin-top:6px;text-align:center;&quot;&gt;&lt;b&gt;AgentEngine&lt;/b&gt;&lt;/p&gt;&lt;hr size=&quot;1&quot; style=&quot;border-style:solid;&quot;&gt;&lt;p style=&quot;margin: 0pt 0pt 0.0001pt; text-align: justify;&quot; class=&quot;MsoNormal&quot;&gt;&lt;span style=&quot;font-family: 微软雅黑; font-size: 10.5pt;&quot;&gt;功能：&lt;/span&gt;&lt;span style=&quot;background-color: initial; text-align: left; font-size: 14px;&quot;&gt;&lt;font face=&quot;微软雅黑&quot;&gt;根据用户指令采取相应的代理&lt;/font&gt;&lt;/span&gt;&lt;/p&gt;" style="align=left;overflow=fill;html=1;dropTarget=0;whiteSpace=wrap;" vertex="1" parent="1">
          <mxGeometry x="460" y="75" width="180" height="90" as="geometry" />
        </mxCell>
        <mxCell id="tLU6vOamgJZOyBqF00xu-15" value="" style="shape=component;jettyWidth=8;jettyHeight=4;" vertex="1" parent="tLU6vOamgJZOyBqF00xu-14">
          <mxGeometry x="1" width="20" height="20" relative="1" as="geometry">
            <mxPoint x="-24" y="4" as="offset" />
          </mxGeometry>
        </mxCell>
        <mxCell id="tLU6vOamgJZOyBqF00xu-17" value="&lt;p style=&quot;margin:0px;margin-top:6px;text-align:center;&quot;&gt;&lt;b&gt;AgentManage&lt;/b&gt;&lt;/p&gt;&lt;hr size=&quot;1&quot; style=&quot;border-style:solid;&quot;&gt;&lt;p style=&quot;margin: 0pt 0pt 0.0001pt; text-align: justify; font-family: 等线; font-size: 10.5pt;&quot; class=&quot;MsoNormal&quot;&gt;&lt;span style=&quot;font-family: 微软雅黑; font-size: 10.5pt;&quot;&gt;功能：Agent&lt;/span&gt;&lt;span style=&quot;font-family: 微软雅黑; font-size: 10.5pt; background-color: initial;&quot;&gt;注册中心，负责注册与管理&lt;/span&gt;&lt;/p&gt;" style="align=left;overflow=fill;html=1;dropTarget=0;whiteSpace=wrap;" vertex="1" parent="1">
          <mxGeometry x="760" y="75" width="180" height="90" as="geometry" />
        </mxCell>
        <mxCell id="tLU6vOamgJZOyBqF00xu-18" value="" style="shape=component;jettyWidth=8;jettyHeight=4;" vertex="1" parent="tLU6vOamgJZOyBqF00xu-17">
          <mxGeometry x="1" width="20" height="20" relative="1" as="geometry">
            <mxPoint x="-24" y="4" as="offset" />
          </mxGeometry>
        </mxCell>
        <mxCell id="tLU6vOamgJZOyBqF00xu-20" value="&lt;p style=&quot;margin:0px;margin-top:6px;text-align:center;&quot;&gt;&lt;b&gt;PromptServer&lt;/b&gt;&lt;/p&gt;&lt;hr size=&quot;1&quot; style=&quot;border-style:solid;&quot;&gt;&lt;p style=&quot;margin: 0pt 0pt 0.0001pt; text-align: justify;&quot; class=&quot;MsoNormal&quot;&gt;&lt;span style=&quot;font-family: 微软雅黑; font-size: 10.5pt;&quot;&gt;功能：&lt;/span&gt;&lt;span style=&quot;background-color: initial; text-align: left; font-size: 14px;&quot;&gt;&lt;font face=&quot;微软雅黑&quot;&gt;根据用户指令采取相应的代理&lt;/font&gt;&lt;/span&gt;&lt;/p&gt;" style="align=left;overflow=fill;html=1;dropTarget=0;whiteSpace=wrap;" vertex="1" parent="1">
          <mxGeometry x="180" y="240" width="180" height="90" as="geometry" />
        </mxCell>
        <mxCell id="tLU6vOamgJZOyBqF00xu-21" value="" style="shape=component;jettyWidth=8;jettyHeight=4;" vertex="1" parent="tLU6vOamgJZOyBqF00xu-20">
          <mxGeometry x="1" width="20" height="20" relative="1" as="geometry">
            <mxPoint x="-24" y="4" as="offset" />
          </mxGeometry>
        </mxCell>
        <mxCell id="tLU6vOamgJZOyBqF00xu-27" value="" style="endArrow=classic;html=1;rounded=0;exitX=0.5;exitY=1;exitDx=0;exitDy=0;entryX=0.5;entryY=0;entryDx=0;entryDy=0;" edge="1" parent="1" source="tLU6vOamgJZOyBqF00xu-14" target="tLU6vOamgJZOyBqF00xu-20">
          <mxGeometry width="50" height="50" relative="1" as="geometry">
            <mxPoint x="560" y="470" as="sourcePoint" />
            <mxPoint x="610" y="420" as="targetPoint" />
          </mxGeometry>
        </mxCell>
        <mxCell id="tLU6vOamgJZOyBqF00xu-28" value="&lt;p style=&quot;margin:0px;margin-top:6px;text-align:center;&quot;&gt;&lt;b&gt;ModelEngine&lt;/b&gt;&lt;/p&gt;&lt;hr size=&quot;1&quot; style=&quot;border-style:solid;&quot;&gt;&lt;p style=&quot;margin: 0pt 0pt 0.0001pt; text-align: justify;&quot; class=&quot;MsoNormal&quot;&gt;&lt;span style=&quot;font-family: 微软雅黑; font-size: 10.5pt;&quot;&gt;功能：&lt;/span&gt;&lt;span style=&quot;background-color: initial; text-align: left; font-size: 14px;&quot;&gt;&lt;font face=&quot;微软雅黑&quot;&gt;模型的推理优化服务据&lt;/font&gt;&lt;/span&gt;&lt;/p&gt;" style="align=left;overflow=fill;html=1;dropTarget=0;whiteSpace=wrap;" vertex="1" parent="1">
          <mxGeometry x="460" y="240" width="180" height="90" as="geometry" />
        </mxCell>
        <mxCell id="tLU6vOamgJZOyBqF00xu-29" value="" style="shape=component;jettyWidth=8;jettyHeight=4;" vertex="1" parent="tLU6vOamgJZOyBqF00xu-28">
          <mxGeometry x="1" width="20" height="20" relative="1" as="geometry">
            <mxPoint x="-24" y="4" as="offset" />
          </mxGeometry>
        </mxCell>
        <mxCell id="tLU6vOamgJZOyBqF00xu-45" style="edgeStyle=orthogonalEdgeStyle;rounded=0;orthogonalLoop=1;jettySize=auto;html=1;entryX=0.5;entryY=0;entryDx=0;entryDy=0;" edge="1" parent="1" source="tLU6vOamgJZOyBqF00xu-31" target="tLU6vOamgJZOyBqF00xu-43">
          <mxGeometry relative="1" as="geometry" />
        </mxCell>
        <mxCell id="tLU6vOamgJZOyBqF00xu-31" value="&lt;p style=&quot;margin:0px;margin-top:6px;text-align:center;&quot;&gt;&lt;b&gt;Inference&lt;/b&gt;&lt;/p&gt;&lt;hr size=&quot;1&quot; style=&quot;border-style:solid;&quot;&gt;&lt;p style=&quot;text-align: left; margin: 0pt 0pt 0.0001pt;&quot; class=&quot;MsoNormal&quot;&gt;&lt;span style=&quot;font-family: 微软雅黑; font-size: 10.5pt;&quot;&gt;功能：提供模型和应用的推理服务&lt;/span&gt;&lt;/p&gt;" style="align=left;overflow=fill;html=1;dropTarget=0;whiteSpace=wrap;" vertex="1" parent="1">
          <mxGeometry x="400" y="369" width="180" height="90" as="geometry" />
        </mxCell>
        <mxCell id="tLU6vOamgJZOyBqF00xu-32" value="" style="shape=component;jettyWidth=8;jettyHeight=4;" vertex="1" parent="tLU6vOamgJZOyBqF00xu-31">
          <mxGeometry x="1" width="20" height="20" relative="1" as="geometry">
            <mxPoint x="-24" y="4" as="offset" />
          </mxGeometry>
        </mxCell>
        <mxCell id="tLU6vOamgJZOyBqF00xu-57" style="edgeStyle=orthogonalEdgeStyle;rounded=0;orthogonalLoop=1;jettySize=auto;html=1;entryX=0.5;entryY=0;entryDx=0;entryDy=0;" edge="1" parent="1" source="tLU6vOamgJZOyBqF00xu-34" target="tLU6vOamgJZOyBqF00xu-55">
          <mxGeometry relative="1" as="geometry" />
        </mxCell>
        <mxCell id="tLU6vOamgJZOyBqF00xu-34" value="&lt;p style=&quot;margin:0px;margin-top:6px;text-align:center;&quot;&gt;&lt;b&gt;Scheduler&lt;/b&gt;&lt;/p&gt;&lt;hr size=&quot;1&quot; style=&quot;border-style:solid;&quot;&gt;&lt;p style=&quot;margin: 0pt 0pt 0.0001pt; text-align: justify;&quot; class=&quot;MsoNormal&quot;&gt;&lt;span style=&quot;font-family: 微软雅黑; font-size: 10.5pt;&quot;&gt;功能：&lt;/span&gt;&lt;span style=&quot;background-color: initial; text-align: left; font-size: 14px;&quot;&gt;&lt;font face=&quot;微软雅黑&quot;&gt;Agent的调度服务&lt;/font&gt;&lt;/span&gt;&lt;/p&gt;" style="align=left;overflow=fill;html=1;dropTarget=0;whiteSpace=wrap;" vertex="1" parent="1">
          <mxGeometry x="760" y="240" width="180" height="90" as="geometry" />
        </mxCell>
        <mxCell id="tLU6vOamgJZOyBqF00xu-35" value="" style="shape=component;jettyWidth=8;jettyHeight=4;" vertex="1" parent="tLU6vOamgJZOyBqF00xu-34">
          <mxGeometry x="1" width="20" height="20" relative="1" as="geometry">
            <mxPoint x="-24" y="4" as="offset" />
          </mxGeometry>
        </mxCell>
        <mxCell id="tLU6vOamgJZOyBqF00xu-36" value="" style="endArrow=classic;html=1;rounded=0;exitX=0.5;exitY=1;exitDx=0;exitDy=0;entryX=0.5;entryY=0;entryDx=0;entryDy=0;" edge="1" parent="1" source="tLU6vOamgJZOyBqF00xu-14" target="tLU6vOamgJZOyBqF00xu-34">
          <mxGeometry width="50" height="50" relative="1" as="geometry">
            <mxPoint x="560" y="175" as="sourcePoint" />
            <mxPoint x="280" y="250" as="targetPoint" />
          </mxGeometry>
        </mxCell>
        <mxCell id="tLU6vOamgJZOyBqF00xu-37" value="&lt;p style=&quot;margin:0px;margin-top:6px;text-align:center;&quot;&gt;&lt;b&gt;PromptManage&lt;/b&gt;&lt;/p&gt;&lt;hr size=&quot;1&quot; style=&quot;border-style:solid;&quot;&gt;&lt;p style=&quot;margin: 0pt 0pt 0.0001pt; text-align: justify;&quot; class=&quot;MsoNormal&quot;&gt;&lt;span style=&quot;font-family: 微软雅黑; font-size: 10.5pt;&quot;&gt;功能：&lt;/span&gt;&lt;span style=&quot;background-color: initial; text-align: left; font-size: 14px;&quot;&gt;&lt;font face=&quot;微软雅黑&quot;&gt;根据用户指令采取相应的代理&lt;/font&gt;&lt;/span&gt;&lt;/p&gt;" style="align=left;overflow=fill;html=1;dropTarget=0;whiteSpace=wrap;" vertex="1" parent="1">
          <mxGeometry x="40" y="390" width="180" height="90" as="geometry" />
        </mxCell>
        <mxCell id="tLU6vOamgJZOyBqF00xu-38" value="" style="shape=component;jettyWidth=8;jettyHeight=4;" vertex="1" parent="tLU6vOamgJZOyBqF00xu-37">
          <mxGeometry x="1" width="20" height="20" relative="1" as="geometry">
            <mxPoint x="-24" y="4" as="offset" />
          </mxGeometry>
        </mxCell>
        <mxCell id="tLU6vOamgJZOyBqF00xu-46" style="edgeStyle=orthogonalEdgeStyle;rounded=0;orthogonalLoop=1;jettySize=auto;html=1;entryX=0.5;entryY=0;entryDx=0;entryDy=0;" edge="1" parent="1" source="tLU6vOamgJZOyBqF00xu-40" target="tLU6vOamgJZOyBqF00xu-43">
          <mxGeometry relative="1" as="geometry">
            <mxPoint x="660" y="500" as="targetPoint" />
          </mxGeometry>
        </mxCell>
        <mxCell id="tLU6vOamgJZOyBqF00xu-40" value="&lt;p style=&quot;margin:0px;margin-top:6px;text-align:center;&quot;&gt;&lt;b&gt;Deployer&lt;/b&gt;&lt;/p&gt;&lt;hr size=&quot;1&quot; style=&quot;border-style:solid;&quot;&gt;&lt;p style=&quot;text-align: left; margin: 0pt 0pt 0.0001pt;&quot; class=&quot;MsoNormal&quot;&gt;&lt;span style=&quot;font-family: 微软雅黑; font-size: 10.5pt;&quot;&gt;功能：模型的部署服务，并对模型进行微调等优化。&lt;/span&gt;&lt;/p&gt;" style="align=left;overflow=fill;html=1;dropTarget=0;whiteSpace=wrap;" vertex="1" parent="1">
          <mxGeometry x="630" y="369" width="180" height="90" as="geometry" />
        </mxCell>
        <mxCell id="tLU6vOamgJZOyBqF00xu-41" value="" style="shape=component;jettyWidth=8;jettyHeight=4;" vertex="1" parent="tLU6vOamgJZOyBqF00xu-40">
          <mxGeometry x="1" width="20" height="20" relative="1" as="geometry">
            <mxPoint x="-24" y="4" as="offset" />
          </mxGeometry>
        </mxCell>
        <mxCell id="tLU6vOamgJZOyBqF00xu-43" value="&lt;p style=&quot;margin:0px;margin-top:6px;text-align:center;&quot;&gt;&lt;b&gt;LLMServer&lt;/b&gt;&lt;/p&gt;&lt;hr size=&quot;1&quot; style=&quot;border-style:solid;&quot;&gt;&lt;p style=&quot;margin: 0pt 0pt 0.0001pt; text-align: justify;&quot; class=&quot;MsoNormal&quot;&gt;&lt;span style=&quot;font-family: 微软雅黑; font-size: 10.5pt;&quot;&gt;功能：&lt;/span&gt;&lt;span style=&quot;background-color: initial; text-align: left; font-size: 14px;&quot;&gt;&lt;font face=&quot;微软雅黑&quot;&gt;提供大模型的统一服务&lt;/font&gt;&lt;/span&gt;&lt;/p&gt;" style="align=left;overflow=fill;html=1;dropTarget=0;whiteSpace=wrap;" vertex="1" parent="1">
          <mxGeometry x="510" y="540" width="180" height="90" as="geometry" />
        </mxCell>
        <mxCell id="tLU6vOamgJZOyBqF00xu-44" value="" style="shape=component;jettyWidth=8;jettyHeight=4;" vertex="1" parent="tLU6vOamgJZOyBqF00xu-43">
          <mxGeometry x="1" width="20" height="20" relative="1" as="geometry">
            <mxPoint x="-24" y="4" as="offset" />
          </mxGeometry>
        </mxCell>
        <mxCell id="tLU6vOamgJZOyBqF00xu-47" value="&lt;p style=&quot;margin:0px;margin-top:6px;text-align:center;&quot;&gt;&lt;b&gt;FileServer&lt;/b&gt;&lt;/p&gt;&lt;hr size=&quot;1&quot; style=&quot;border-style:solid;&quot;&gt;&lt;p style=&quot;margin: 0pt 0pt 0.0001pt; text-align: justify;&quot; class=&quot;MsoNormal&quot;&gt;&lt;span style=&quot;font-family: 微软雅黑; font-size: 10.5pt;&quot;&gt;功能：&lt;/span&gt;&lt;span style=&quot;background-color: initial; text-align: left; font-size: 14px;&quot;&gt;&lt;font face=&quot;微软雅黑&quot;&gt;根据用户指令采取相应的代理&lt;/font&gt;&lt;/span&gt;&lt;/p&gt;" style="align=left;overflow=fill;html=1;dropTarget=0;whiteSpace=wrap;" vertex="1" parent="1">
          <mxGeometry x="220" y="510" width="180" height="90" as="geometry" />
        </mxCell>
        <mxCell id="tLU6vOamgJZOyBqF00xu-48" value="" style="shape=component;jettyWidth=8;jettyHeight=4;" vertex="1" parent="tLU6vOamgJZOyBqF00xu-47">
          <mxGeometry x="1" width="20" height="20" relative="1" as="geometry">
            <mxPoint x="-24" y="4" as="offset" />
          </mxGeometry>
        </mxCell>
        <mxCell id="tLU6vOamgJZOyBqF00xu-51" value="" style="endArrow=classic;html=1;rounded=0;exitX=0.5;exitY=1;exitDx=0;exitDy=0;entryX=0.5;entryY=0;entryDx=0;entryDy=0;" edge="1" parent="1" source="tLU6vOamgJZOyBqF00xu-28" target="tLU6vOamgJZOyBqF00xu-40">
          <mxGeometry width="50" height="50" relative="1" as="geometry">
            <mxPoint x="560" y="175" as="sourcePoint" />
            <mxPoint x="860" y="250" as="targetPoint" />
          </mxGeometry>
        </mxCell>
        <mxCell id="tLU6vOamgJZOyBqF00xu-52" value="" style="endArrow=classic;html=1;rounded=0;entryX=0.467;entryY=0.006;entryDx=0;entryDy=0;entryPerimeter=0;exitX=0.5;exitY=1;exitDx=0;exitDy=0;" edge="1" parent="1" source="tLU6vOamgJZOyBqF00xu-20" target="tLU6vOamgJZOyBqF00xu-47">
          <mxGeometry width="50" height="50" relative="1" as="geometry">
            <mxPoint x="50" y="410" as="sourcePoint" />
            <mxPoint x="100" y="360" as="targetPoint" />
          </mxGeometry>
        </mxCell>
        <mxCell id="tLU6vOamgJZOyBqF00xu-53" value="" style="endArrow=classic;html=1;rounded=0;entryX=0.5;entryY=0;entryDx=0;entryDy=0;" edge="1" parent="1" target="tLU6vOamgJZOyBqF00xu-37">
          <mxGeometry width="50" height="50" relative="1" as="geometry">
            <mxPoint x="270" y="330" as="sourcePoint" />
            <mxPoint x="364" y="491" as="targetPoint" />
          </mxGeometry>
        </mxCell>
        <mxCell id="tLU6vOamgJZOyBqF00xu-54" value="" style="endArrow=classic;html=1;rounded=0;entryX=0.5;entryY=0;entryDx=0;entryDy=0;exitX=0.5;exitY=1;exitDx=0;exitDy=0;" edge="1" parent="1" source="tLU6vOamgJZOyBqF00xu-28" target="tLU6vOamgJZOyBqF00xu-31">
          <mxGeometry width="50" height="50" relative="1" as="geometry">
            <mxPoint x="280" y="340" as="sourcePoint" />
            <mxPoint x="314" y="521" as="targetPoint" />
          </mxGeometry>
        </mxCell>
        <mxCell id="tLU6vOamgJZOyBqF00xu-55" value="&lt;p style=&quot;margin:0px;margin-top:6px;text-align:center;&quot;&gt;&lt;b&gt;ContextServer&lt;/b&gt;&lt;/p&gt;&lt;hr size=&quot;1&quot; style=&quot;border-style:solid;&quot;&gt;&lt;p style=&quot;margin: 0pt 0pt 0.0001pt; text-align: justify;&quot; class=&quot;MsoNormal&quot;&gt;&lt;span style=&quot;font-family: 微软雅黑; font-size: 10.5pt;&quot;&gt;功能：&lt;/span&gt;&lt;span style=&quot;background-color: initial; text-align: left; font-size: 14px;&quot;&gt;&lt;font face=&quot;微软雅黑&quot;&gt;获取并且管理用户和代理的上下文对话信息&lt;/font&gt;&lt;/span&gt;&lt;/p&gt;" style="align=left;overflow=fill;html=1;dropTarget=0;whiteSpace=wrap;" vertex="1" parent="1">
          <mxGeometry x="760" y="480" width="180" height="90" as="geometry" />
        </mxCell>
        <mxCell id="tLU6vOamgJZOyBqF00xu-56" value="" style="shape=component;jettyWidth=8;jettyHeight=4;" vertex="1" parent="tLU6vOamgJZOyBqF00xu-55">
          <mxGeometry x="1" width="20" height="20" relative="1" as="geometry">
            <mxPoint x="-24" y="4" as="offset" />
          </mxGeometry>
        </mxCell>
      </root>
    </mxGraphModel>
  </diagram>
</mxfile>
